<svg width="325" height="418" viewBox="0 0 325 418" fill="none" xmlns="http://www.w3.org/2000/svg">
<path d="M252.603 95.3668C252.133 93.3533 251.597 91.3397 251.128 89.3262C250.122 85.2321 248.849 81.1383 247.642 76.9771C242.279 60.6008 239.195 40.6004 228.805 26.8417C221.879 17.4498 212.593 10.0617 201.89 5.42878C191.187 0.795834 179.45 -0.917149 167.872 0.464728C152.501 2.17922 138.243 9.31706 127.651 20.5995C120.971 28.0662 115.742 36.716 112.233 46.1039C105.529 61.9433 98.8259 77.648 92.1225 93.5545H91.4515H90.3124C85.8881 93.5545 81.5309 94.1592 76.9055 94.2263H-43.2197C-51.5826 93.8792 -59.9608 94.3737 -68.225 95.7027C-74.1367 96.5391 -79.9509 97.9554 -85.5859 99.931C-92.5931 103.486 -98.7349 108.538 -103.577 114.731C-108.419 120.925 -111.843 128.107 -113.607 135.771C-115.503 143.709 -115.463 151.988 -113.491 159.908C-111.519 167.828 -107.673 175.157 -102.277 181.276C-96.3319 187.601 -89.1119 192.587 -81.0951 195.906C-65.409 202.618 -49.79 209.733 -34.171 216.646C-13.4574 225.639 7.12228 235.102 27.903 243.894C12.351 279.958 -3.04388 316.089 -18.283 352.287C-27.7349 374.167 -36.9198 396.114 -46.3046 417.926C-6.08396 406.919 34.1367 395.241 74.3574 384.368C80.4003 382.706 86.3343 380.666 92.1225 378.261C106.366 371.969 118.212 361.259 125.913 347.712C133.614 334.165 136.761 318.498 134.89 303.024C134.286 298.661 133.616 294.298 133.012 290.003C153.098 296.581 174.675 297.091 195.049 291.47C215.422 285.848 233.691 274.343 247.575 258.392C257.327 247.506 264.661 234.673 269.093 220.74C278.545 192.887 274.053 165.033 264.199 138.052C275.93 137.583 286.321 139.395 297.717 135.167C303.309 133.094 308.389 129.839 312.611 125.623C316.833 121.407 320.098 116.33 322.183 110.737C323.623 105.947 324.568 101.021 325 96.0378C301.002 95.1653 276.802 95.501 252.603 95.3668ZM154.597 55.0972C157.611 49.6665 162.321 45.3758 168.004 42.8825C173.226 41.8933 178.611 42.1928 183.691 43.755C187.119 44.9775 190.214 46.9857 192.728 49.6195C195.242 52.2532 197.105 55.4395 198.17 58.9233C201.253 68.3195 203.533 78.0513 206.616 87.4475L208.292 93.421C184.83 94.025 161.368 93.421 137.839 93.421C143.671 80.4676 148.698 67.4471 154.597 54.8293V55.0972ZM17.7807 193.49C11.5465 190.403 5.31177 187.651 -1.19057 185.168C-4.81043 183.423 -8.42951 181.745 -12.1164 180.201L-20.8983 176.309C-33.6348 171.074 -46.0356 165.033 -58.8392 159.932C-63.3421 158.23 -67.5503 155.829 -71.3083 152.818C-72.1064 151.467 -72.5795 149.949 -72.6912 148.383C-72.803 146.817 -72.5495 145.246 -71.9515 143.795C-71.3535 142.344 -70.4283 141.052 -69.2462 140.02C-68.0642 138.989 -66.6576 138.247 -65.14 137.852C-57.163 137.046 -48.9857 137.852 -41.0086 137.852C-2.73197 137.852 35.6126 137.852 73.8222 137.852L72.2805 140.67C63.0968 162.348 54.3142 184.296 44.3261 205.639C35.4105 201.075 26.6963 196.981 17.7807 193.222V193.49ZM86.8265 331.078C81.7047 336.992 74.7778 341.05 67.1188 342.623C53.7119 345.978 40.8402 350.341 27.5004 353.428L47.6107 305.306C53.5768 291.882 58.8732 278.459 65.1074 265.036C65.6437 263.962 66.1798 262.821 66.649 261.747L68.1236 263.761C74.8271 274.366 82.2015 283.896 88.9049 294.702C92.3176 300.201 93.9494 306.621 93.5774 313.085C93.2054 319.548 90.8475 325.74 86.8265 330.81V331.078ZM85.419 223.692L84.0116 220.673C85.8215 216.31 87.8314 211.947 89.5743 207.249C99.0932 184.833 108.947 162.55 117.997 140.133C152.676 139.865 187.31 139.865 221.9 140.133C223.844 146.308 225.454 152.617 227.465 158.792C230.629 168.936 232.454 179.45 232.895 190.067C231.908 205.264 225.839 219.687 215.666 231.009C205.034 242.801 190.568 250.435 174.842 252.553C165.736 253.418 156.551 252.69 147.694 250.404C126.645 241.881 106.334 231.814 85.419 223.223V223.692Z" fill="black" fill-opacity="0.02"/>
</svg>
