<svg width="273" height="62" viewBox="0 0 273 62" fill="none" xmlns="http://www.w3.org/2000/svg">
<g clip-path="url(#clip0_134_1072)">
<path d="M49.6775 28.7299L48.6467 28.707H47.8654C47.5043 28.7168 47.1432 28.7625 46.7919 28.8473C46.5096 28.9159 46.2404 29.0203 45.9876 29.1638C45.7513 29.3107 45.5346 29.4901 45.3508 29.6957C45.1308 29.947 44.947 30.2276 44.8025 30.5278C44.7205 30.6942 44.6515 30.8671 44.5892 31.0433C44.5596 31.1314 44.5333 31.2195 44.5071 31.3011L44.4775 31.4186L44.4546 31.5034L44.1197 33.409L41.3523 49.6326L39.4023 60.9192C52.6681 57.3495 62.4278 45.3058 62.4442 30.9976C62.4442 30.3222 62.418 29.65 62.3753 28.9844L51.7423 28.7723L49.6775 28.7299Z" fill="white"/>
<path d="M20.8031 59.9287L20.7539 60.2126C24.1155 61.4003 27.6576 62.0073 31.2227 62.0007H31.4722C29.9851 55.4845 28.5341 48.9586 27.0798 42.4359L25.3104 34.3828L23.971 42.0476L21.8635 53.9705L20.8031 59.9255V59.9287Z" fill="white"/>
<path d="M12.0581 55.4643L11.8808 54.7138C11.0043 50.9875 10.1607 47.2579 9.34652 43.5185C8.93617 41.6521 8.52583 39.7856 8.13846 37.9094C7.75109 36.0332 7.38998 34.1602 7.03216 32.2938L6.76297 30.9005L6.73014 30.7276L6.71373 30.6427L6.7006 30.5742L6.64151 30.3001C6.62509 30.2055 6.59883 30.1207 6.57257 30.0326C6.5463 29.9445 6.52661 29.8531 6.49706 29.765C6.38873 29.4322 6.25414 29.1091 6.09328 28.7992C5.93899 28.5088 5.75187 28.2379 5.54177 27.9867C5.11501 27.4842 4.57335 27.0926 3.96275 26.8414C3.63775 26.7043 3.30291 26.6032 2.95493 26.5346C2.78095 26.4988 2.60367 26.4759 2.4264 26.4596C2.33777 26.4531 2.25242 26.4465 2.17035 26.4433H1.98651C1.98651 26.4433 1.97338 26.4433 1.99636 26.4433L1.81581 26.4531L0.341833 26.4237C-1.32582 37.4983 3.15518 48.6022 12.0581 55.4643Z" fill="white"/>
<path d="M1.74395 22.681H1.81617L1.95077 22.6745H2.65985C2.96515 22.6875 3.26717 22.7136 3.5659 22.7561C4.17322 22.8376 4.7674 22.978 5.34517 23.177C5.93936 23.3826 6.51056 23.6501 7.04566 23.9764C7.5906 24.3093 8.09615 24.7041 8.54917 25.1511C8.99892 25.5981 9.39942 26.0876 9.74411 26.6162C10.0724 27.1317 10.358 27.6701 10.5944 28.2346C10.6567 28.3684 10.7027 28.512 10.7552 28.649C10.8077 28.7861 10.8635 28.9264 10.9029 29.0634L11.0375 29.4811L11.0704 29.5855L11.0966 29.6736L11.1459 29.8498L11.5398 31.2496C12.0552 33.1063 12.541 34.9662 13.0006 36.8261C13.4602 38.6925 13.8903 40.5589 14.317 42.4221C14.944 45.1695 15.5514 47.9235 16.1423 50.684L17.7082 41.0027L19.6581 29.0438L20.6463 23.0726L21.142 20.0869L21.3914 18.5958L21.5162 17.8485L21.5457 17.6625L21.5621 17.5679V17.5451C21.549 17.6071 21.6015 17.3167 21.6344 17.209C21.677 17.0524 21.7296 16.9023 21.7952 16.7554C21.8642 16.5955 21.943 16.4422 22.0349 16.2954C22.2286 15.9886 22.4682 15.7145 22.7472 15.4796C23.0164 15.2577 23.3184 15.0783 23.6434 14.9477C24.4083 14.6345 25.2619 14.6051 26.0432 14.8662C26.3747 14.9771 26.6899 15.137 26.9722 15.3393C27.1199 15.447 27.2578 15.5644 27.3891 15.6917C27.5171 15.819 27.6353 15.9593 27.7404 16.1028C27.9406 16.3769 28.0949 16.6771 28.2065 16.9969C28.2492 17.1176 28.3083 17.346 28.3148 17.3885L30.9148 29.2135L33.4885 41.0386C33.8693 42.8267 34.2534 44.6116 34.6375 46.3997L36.3807 32.4178L36.6498 30.287C36.6728 30.1304 36.6958 29.9966 36.7188 29.8661C36.7418 29.7356 36.7713 29.6083 36.7976 29.4811C36.8534 29.2331 36.9158 28.9884 36.9847 28.7502C37.1226 28.2705 37.29 27.8006 37.4837 27.3373C37.8875 26.3812 38.416 25.4807 39.0561 24.6617C39.7357 23.8002 40.5432 23.0465 41.446 22.4232C42.3488 21.8131 43.3336 21.3399 44.3742 21.0104C45.3427 20.7102 46.3406 20.5177 47.3517 20.4459L48.0641 20.4132H48.6353L49.6661 20.3904L51.731 20.348L60.4632 20.1718C56.0446 8.38914 44.6205 0 31.2267 0C16.8875 0 4.81336 9.60949 1.14648 22.6973C1.33689 22.6973 1.53057 22.6973 1.72097 22.6843L1.74395 22.6778V22.681Z" fill="white"/>
<path d="M109.682 12.2129L101.436 28.0645L102.319 12.2129H94.5944L87.2968 28.1004L87.6087 12.2129H80.7969L80.8494 34.8254H89.2271L95.9437 20.8435L95.2641 34.8254H103.993L116.336 12.2129H109.682Z" fill="white"/>
<path d="M118.442 12.2129L112.572 34.8254H120.123L125.992 12.2129H118.442Z" fill="white"/>
<path d="M148.972 12.2129H127.633L126.32 17.2803L133.454 17.3097L128.887 34.8254C128.887 34.8254 132.055 34.7928 132.535 34.7928L136.021 34.8254L140.568 17.3097H147.639L148.972 12.2129Z" fill="white"/>
<path d="M162.841 28.645C162.923 28.2893 162.963 27.9239 162.959 27.5584C162.953 27.2191 162.904 26.883 162.815 26.5567C162.703 26.1749 162.549 25.8095 162.355 25.4636C162.122 25.0394 161.853 24.6348 161.548 24.2563C161.262 23.8876 160.95 23.5384 160.619 23.2121L159.634 22.2659C158.918 21.6133 158.396 21.114 158.068 20.7682C157.782 20.4843 157.526 20.1743 157.3 19.8415C157.149 19.6163 157.037 19.3683 156.972 19.104C156.926 18.8887 156.926 18.6668 156.972 18.4514C157.073 17.975 157.448 17.577 158.088 17.2572C158.794 16.9244 159.568 16.7579 160.35 16.7775C161.069 16.7906 161.781 16.8689 162.483 17.019C163.179 17.1038 163.856 17.2931 164.496 17.577C165.133 15.1265 165.618 13.3351 165.835 12.4378C163.862 12.0201 161.85 11.8015 159.831 11.7852C158.882 11.7852 157.933 11.8602 156.998 12.007C156.059 12.1604 155.143 12.441 154.283 12.8456C153.472 13.2111 152.724 13.7038 152.067 14.3042C151.493 14.836 151 15.443 150.603 16.1151C150.239 16.7286 149.976 17.3975 149.822 18.0958C149.704 18.6211 149.664 19.1595 149.704 19.6946C149.749 20.2069 149.884 20.7094 150.107 21.176C150.383 21.7438 150.734 22.2724 151.148 22.7521C151.381 23.0261 151.798 23.4732 152.399 24.0931L154.963 26.8112C155.166 27.02 155.34 27.2582 155.481 27.5128C155.58 27.6922 155.645 27.8913 155.672 28.0936C155.691 28.273 155.681 28.4558 155.642 28.632C155.501 29.2095 155.077 29.6794 154.513 29.8817C153.748 30.1884 152.93 30.3352 152.107 30.3059C151.266 30.2928 150.429 30.1819 149.612 29.9796C148.686 29.7838 147.793 29.464 146.953 29.0333C146.319 31.461 146.155 32.094 145.551 34.4172C147.826 34.9034 150.143 35.184 152.471 35.2558C153.613 35.2558 154.756 35.1416 155.875 34.9067C156.985 34.6717 158.052 34.2606 159.03 33.6896C160.011 33.1284 160.865 32.3713 161.541 31.4708C162.175 30.6322 162.618 29.6696 162.841 28.645Z" fill="white"/>
<path d="M192.61 18.3737C192.285 17.013 191.592 15.7666 190.604 14.7713C189.544 13.6978 188.227 12.9114 186.773 12.4873C185.154 12.0043 183.474 11.7629 181.786 11.7759C179.098 11.7563 176.435 12.2752 173.957 13.3095C171.656 14.2362 169.617 15.7046 168.018 17.5906C166.489 19.4342 165.438 21.6204 164.959 23.9599C164.614 25.4315 164.558 26.9586 164.801 28.4498C165.064 29.8366 165.733 31.1124 166.725 32.1206C167.815 33.2562 169.19 34.085 170.71 34.5189C172.414 35.0214 174.183 35.2694 175.963 35.2564C177.87 35.2596 179.767 35.0117 181.609 34.5189C183.428 34.036 185.141 33.2235 186.665 32.1239C188.155 31.0536 189.429 29.7126 190.42 28.1724C191.431 26.6127 192.144 24.8801 192.524 23.0626C192.899 21.5257 192.928 19.9236 192.61 18.3737ZM185.266 23.1964C184.987 24.4526 184.459 25.6404 183.71 26.6878C182.965 27.7711 181.97 28.6554 180.805 29.2721C179.702 29.8692 178.467 30.1857 177.21 30.1922C176.117 30.2085 175.043 29.9247 174.101 29.3732C173.218 28.874 172.565 28.055 172.276 27.0891C171.974 26.0417 171.951 24.9355 172.207 23.8751C172.486 22.5895 173.028 21.3724 173.803 20.3054C174.567 19.2188 175.582 18.3247 176.757 17.695C177.883 17.0848 179.144 16.7683 180.427 16.7683C181.517 16.7357 182.594 17.0228 183.52 17.5971C184.36 18.1355 184.967 18.9643 185.223 19.9236C185.509 20.9939 185.525 22.1196 185.266 23.1964Z" fill="white"/>
<path d="M216.032 29.5491C216.689 28.319 217.345 25.8946 217.673 24.5111L220.894 12.2129H213.55C213.55 12.2129 210.287 24.8668 210.024 25.8032C209.811 26.4885 209.512 27.1476 209.135 27.761C208.853 28.1722 208.521 28.5474 208.15 28.877C207.904 29.1347 207.615 29.3468 207.296 29.5067C206.939 29.6601 206.571 29.7873 206.193 29.8885C205.691 30.0353 205.169 30.1104 204.647 30.1071C204.056 30.1136 203.472 30.0092 202.917 29.8069C202.441 29.6536 202.034 29.3403 201.765 28.9226C201.519 28.5735 201.397 28.1526 201.414 27.7251C201.414 27.1639 201.693 26.1948 201.873 25.3562C201.969 24.9157 202.477 23.0232 202.477 23.0232L205.284 12.2162H198.062C198.062 12.2162 194.405 26.2894 194.27 26.8245C194.136 27.3597 193.965 27.9535 193.906 28.2178C193.725 29.0107 193.647 29.8232 193.673 30.6357C193.699 31.0305 193.821 31.4123 194.021 31.7549C194.287 32.2476 194.648 32.6849 195.081 33.0373C195.675 33.5267 196.339 33.9248 197.051 34.2217C197.924 34.5839 198.837 34.845 199.772 34.9951C200.948 35.1745 202.133 35.2626 203.321 35.2594C204.726 35.2594 206.131 35.1419 207.516 34.9102C208.862 34.6981 210.172 34.3 211.41 33.7258C212.457 33.2624 213.416 32.6261 214.249 31.8463C214.959 31.1774 215.559 30.4008 216.032 29.5491Z" fill="white"/>
<path d="M248.571 12.2129H242.091L238.26 26.9714L233.336 12.2129H224.745L218.875 34.8254H225.237L228.986 20.3899L234.087 34.8254H242.701L248.571 12.2129Z" fill="white"/>
<path d="M272.97 18.7808C272.911 17.6909 272.629 16.6207 272.143 15.6418C271.69 14.7608 271.01 14.0103 270.173 13.4719C269.29 12.9074 268.299 12.5354 267.261 12.3788C265.984 12.1863 264.694 12.0949 263.401 12.1112C262.087 12.1112 252.239 12.2124 252.239 12.2124L246.33 34.8249H256.159C257.538 34.8314 258.916 34.7629 260.289 34.6258C261.185 34.5443 262.074 34.3844 262.944 34.1462C263.644 33.9341 264.323 33.6567 264.973 33.3174C265.892 32.8475 266.749 32.27 267.534 31.601C268.354 30.893 269.09 30.0903 269.723 29.2093C270.426 28.2336 271.027 27.1862 271.509 26.0866C272.024 24.9348 272.418 23.7307 272.681 22.4973C272.957 21.277 273.052 20.0272 272.97 18.7808ZM265.426 22.6964H265.42C265.18 23.7927 264.792 24.8499 264.264 25.8386C263.768 26.8045 263.076 27.6594 262.232 28.3479C261.47 28.9743 260.571 29.4116 259.606 29.6237C258.847 29.8325 258.063 29.9337 257.275 29.9206H254.547L257.928 16.9013C257.928 16.9013 261.973 16.6664 263.893 17.4952C264.628 17.8215 265.117 18.4741 265.403 19.3779C265.689 20.2817 265.705 21.3846 265.426 22.6964Z" fill="white"/>
<path d="M79.6953 42.249H82.617L80.5652 50.0508H82.722L84.7475 42.249H87.5609L87.9482 40.7578H80.0696L79.6953 42.249Z" fill="white"/>
<path d="M93.5117 50.0495H100.307L100.668 48.6529H95.9935L96.6501 46.1078L100.767 46.0882L101.095 44.6035L97.0506 44.6231L97.6645 42.2607H102.333L102.72 40.7695H95.9311L93.5117 50.0495Z" fill="white"/>
<path d="M113.811 40.9135C113.092 41.1191 112.412 41.4519 111.808 41.8924C111.208 42.3362 110.696 42.8909 110.298 43.5239C109.891 44.1635 109.602 44.8715 109.448 45.6122C109.304 46.242 109.277 46.8913 109.373 47.5309C109.461 48.0986 109.73 48.6207 110.141 49.0253C110.558 49.4397 111.07 49.7497 111.631 49.9259C112.245 50.1217 112.888 50.2196 113.535 50.2131C113.863 50.2131 114.221 50.1935 114.664 50.1576C115.108 50.1217 115.597 50.0597 116.138 49.9683C116.329 49.4169 116.532 48.8785 116.746 48.3368C115.912 48.5816 115.052 48.7186 114.182 48.7447C113.558 48.7773 112.941 48.6272 112.403 48.3107C111.986 48.053 111.677 47.6484 111.546 47.1752C111.414 46.6531 111.414 46.1082 111.546 45.5861C111.654 45.0804 111.851 44.5975 112.127 44.1602C112.403 43.7132 112.757 43.3184 113.174 42.9953C113.575 42.6788 114.028 42.4406 114.517 42.2905C114.986 42.1437 115.479 42.0686 115.971 42.0686C116.293 42.0686 116.618 42.0947 116.936 42.1437C117.353 42.2122 117.763 42.3068 118.167 42.4243L118.272 41.6934C118.295 41.527 118.344 41.2398 118.417 40.8352C117.635 40.6753 116.841 40.5905 116.043 40.584C115.288 40.5872 114.536 40.6982 113.811 40.9168V40.9135Z" fill="white"/>
<path d="M132.807 44.5324H128.379L129.364 40.7539H127.066L124.656 50.0469H126.941L127.992 45.9975H132.42L131.37 50.0469H133.549L135.962 40.7539H133.812L132.807 44.5324Z" fill="white"/>
<path d="M150.302 47.8281L147.473 40.7539H144.928L142.516 50.0469H144.377C144.377 50.0469 145.986 43.8113 146.179 43.0772C146.383 43.6025 149.055 50.0469 149.055 50.0469H151.556L154.012 40.7539H152.137L150.302 47.8281Z" fill="white"/>
<path d="M171.922 43.2384C171.791 42.6902 171.515 42.1877 171.124 41.7831C170.721 41.3557 170.212 41.0424 169.65 40.8727C169.037 40.6802 168.393 40.5856 167.75 40.5921C166.978 40.5856 166.213 40.6965 165.475 40.9184C164.759 41.1338 164.083 41.4633 163.476 41.8973C162.868 42.3345 162.356 42.8893 161.969 43.5288C161.572 44.1651 161.289 44.8666 161.132 45.5975C160.994 46.1979 160.968 46.8212 161.053 47.4313C161.141 47.9926 161.394 48.5146 161.778 48.9323C162.195 49.3826 162.727 49.7122 163.315 49.8916C163.975 50.1005 164.664 50.2049 165.357 50.1983C166.135 50.2016 166.909 50.0907 167.655 49.872C168.383 49.66 169.063 49.3108 169.66 48.8475C170.241 48.3939 170.727 47.8359 171.095 47.1997C171.459 46.5764 171.722 45.901 171.873 45.1962C172.034 44.5534 172.05 43.8877 171.922 43.2384ZM169.752 45.2875C169.647 45.7737 169.47 46.2436 169.227 46.6776C168.991 47.1083 168.682 47.4933 168.308 47.8164C167.95 48.1263 167.536 48.3678 167.09 48.5212C166.66 48.6745 166.204 48.7528 165.747 48.7528C165.192 48.7626 164.644 48.6289 164.158 48.3613C163.712 48.1231 163.387 47.7119 163.252 47.2258C163.108 46.6906 163.101 46.1327 163.229 45.5943C163.364 44.958 163.627 44.3576 163.994 43.8225C164.359 43.2776 164.848 42.8305 165.426 42.5173C166.01 42.2008 166.663 42.0376 167.33 42.0441C167.743 42.0409 168.157 42.1127 168.544 42.2562C168.895 42.3868 169.201 42.6119 169.427 42.9088C169.654 43.2253 169.792 43.5941 169.824 43.9824C169.87 44.4196 169.847 44.8601 169.752 45.2875Z" fill="white"/>
<path d="M183.519 40.7676H181.366L178.953 50.0606H185.456L185.837 48.664H181.468L183.519 40.7676Z" fill="white"/>
<path d="M204.645 43.2553C204.517 42.7006 204.238 42.1948 203.844 41.7837V41.7935C203.44 41.3693 202.934 41.056 202.373 40.8864C201.759 40.6971 201.116 40.6025 200.472 40.6057C199.701 40.5992 198.936 40.7102 198.197 40.932C197.482 41.1474 196.806 41.477 196.198 41.9109C195.591 42.3482 195.079 42.9029 194.691 43.5424C194.294 44.182 194.012 44.8803 193.854 45.6144C193.716 46.2148 193.69 46.838 193.776 47.4482C193.864 48.0095 194.117 48.5315 194.501 48.9492C194.918 49.3995 195.446 49.7291 196.034 49.9085C196.694 50.1173 197.387 50.2218 198.079 50.2152C198.857 50.2185 199.632 50.1076 200.377 49.8889C201.106 49.6768 201.786 49.3277 202.383 48.8644C202.964 48.4108 203.45 47.8528 203.818 47.2166C204.182 46.5933 204.445 45.9179 204.596 45.2131C204.756 44.5703 204.773 43.9046 204.645 43.2553ZM202.472 45.2881C202.37 45.7743 202.193 46.2442 201.95 46.6782C201.713 47.1089 201.405 47.4939 201.03 47.8169C200.673 48.1269 200.259 48.3684 199.813 48.5217C199.379 48.6751 198.926 48.7534 198.467 48.7534C197.912 48.7632 197.364 48.6294 196.878 48.3619C196.435 48.1204 196.11 47.7125 195.975 47.2263C195.831 46.6945 195.821 46.1332 195.949 45.5948C196.087 44.9618 196.349 44.3582 196.717 43.823C197.081 43.2781 197.57 42.8311 198.148 42.5179C198.733 42.2013 199.386 42.0382 200.052 42.0447C200.466 42.0415 200.876 42.1132 201.264 42.2568C201.615 42.3841 201.923 42.6125 202.147 42.9094C202.373 43.2227 202.511 43.5881 202.547 43.9731C202.596 44.4136 202.57 44.8574 202.472 45.2881Z" fill="white"/>
<path d="M217.522 40.7608C216.901 40.8783 216.304 41.0871 215.749 41.3808C215.175 41.681 214.649 42.0628 214.19 42.5163C213.74 42.9568 213.356 43.4626 213.047 44.0108C212.752 44.5426 212.535 45.1137 212.407 45.7075C212.26 46.3503 212.246 47.016 212.365 47.6653C212.453 48.2298 212.722 48.7486 213.13 49.15C213.573 49.5513 214.114 49.8352 214.699 49.969C215.414 50.1419 216.15 50.2268 216.885 50.2202C217.312 50.2202 217.84 50.1876 218.467 50.1289C219.094 50.0701 219.8 49.9625 220.591 49.8026C221.038 47.9459 221.904 44.7384 221.904 44.7384H218.241C218.241 44.7384 218.054 45.5248 217.883 46.1317H219.593L218.97 48.5202C218.618 48.6214 218.261 48.6932 217.896 48.7421C217.607 48.7813 217.315 48.8041 217.023 48.8074C216.439 48.8269 215.861 48.6932 215.342 48.4256C214.915 48.207 214.6 47.8187 214.479 47.3553C214.357 46.8398 214.357 46.3014 214.479 45.7858C214.597 45.2442 214.804 44.7286 215.093 44.2555C215.382 43.7693 215.759 43.3451 216.209 43.0025C216.645 42.6697 217.138 42.4184 217.663 42.2618C218.195 42.1052 218.75 42.0236 219.304 42.0236C220.211 42.0856 221.107 42.252 221.973 42.5131C221.973 42.5131 222.233 41.4754 222.387 40.9436C221.409 40.7184 220.411 40.6009 219.406 40.5879C218.773 40.5879 218.142 40.6466 217.522 40.7608Z" fill="white"/>
<path d="M229.34 50.0508H231.523L233.936 40.7578H231.69L229.34 50.0508Z" fill="white"/>
<path d="M240.375 50.0508H247.233L247.594 48.6542H242.926L243.582 46.0961L247.64 46.0765L248.027 44.5918L243.966 44.6114L244.58 42.249L249.252 42.2294L249.632 40.7578H242.801L240.375 50.0508Z" fill="white"/>
<path d="M259.126 40.9152C258.64 41.1012 258.207 41.4047 257.862 41.793C257.557 42.1388 257.343 42.5532 257.245 43.0035C257.196 43.2189 257.179 43.4375 257.199 43.6561C257.225 43.8715 257.288 44.0803 257.383 44.2728C257.514 44.5241 257.678 44.7558 257.865 44.9678C257.961 45.0886 258.141 45.2941 258.4 45.5617C258.949 46.1327 259.329 46.5439 259.536 46.7919C259.684 46.942 259.796 47.1214 259.865 47.3172C259.897 47.4542 259.897 47.5945 259.865 47.7316C259.822 47.9372 259.717 48.1264 259.566 48.2733C259.382 48.4527 259.155 48.5832 258.909 48.6485C258.637 48.7366 258.351 48.7823 258.062 48.7823C257.327 48.7953 256.598 48.6224 255.951 48.2733C255.899 48.4984 255.574 49.6698 255.531 49.8623C256.139 50.0026 256.628 50.1005 257.005 50.1495C257.34 50.1952 257.675 50.2213 258.013 50.2245C258.446 50.2245 258.876 50.1821 259.3 50.0973C259.72 50.0124 260.124 49.8591 260.495 49.6437C260.866 49.4381 261.187 49.1543 261.44 48.8116C261.683 48.4919 261.851 48.1232 261.939 47.7316C261.972 47.5782 261.988 47.4216 261.988 47.265C261.988 47.1182 261.966 46.9746 261.926 46.8343C261.88 46.6809 261.818 46.5308 261.736 46.3905C261.641 46.2208 261.529 46.0609 261.407 45.9076C261.263 45.7281 261.109 45.5552 260.945 45.392L260.275 44.635C260.157 44.5371 260.019 44.4066 259.855 44.2435C259.72 44.1162 259.602 43.9759 259.5 43.8225C259.438 43.7312 259.385 43.6333 259.349 43.5289C259.326 43.4538 259.313 43.3755 259.31 43.2972C259.306 43.2221 259.31 43.1438 259.329 43.0688C259.415 42.7653 259.625 42.5076 259.907 42.364C260.258 42.1584 260.662 42.054 261.069 42.0638C261.647 42.0442 262.218 42.1552 262.747 42.3901C262.819 42.1127 263.003 41.4112 263.164 40.85C262.455 40.6999 261.732 40.6215 261.007 40.6118C260.37 40.5922 259.733 40.6933 259.132 40.912H259.126V40.9152Z" fill="white"/>
</g>
<defs>
<clipPath id="clip0_134_1072">
<rect width="273" height="62" fill="white"/>
</clipPath>
</defs>
</svg>
