<svg width="323" height="71" viewBox="0 0 323 71" fill="none" xmlns="http://www.w3.org/2000/svg">
<path d="M56.3455 32.7471H55.1754H54.2942C53.8824 32.7541 53.4727 32.8062 53.0723 32.9026C52.7539 32.9826 52.4477 33.1046 52.1615 33.2654C51.8884 33.4335 51.6393 33.6378 51.4209 33.8727C51.1766 34.1627 50.9678 34.4809 50.7989 34.8205C50.7091 35.0135 50.63 35.2113 50.5619 35.413C50.5619 35.5092 50.4953 35.6129 50.4657 35.7018V35.8351V35.9313L50.088 38.1085L46.9481 56.6217L44.7266 69.5069C52.2275 67.4699 58.8506 63.0232 63.5756 56.8517C68.3005 50.6802 70.8653 43.1263 70.8746 35.3537C70.8746 34.6132 70.8746 33.8134 70.7932 33.0581L58.73 32.8137L56.3455 32.7471Z" fill="#D1F94F"/>
<path d="M23.585 68.3593L23.5332 68.6851C27.3375 70.0359 31.3446 70.7272 35.3817 70.7289H35.663C33.9746 63.2866 32.3307 55.8369 30.6793 48.3872L28.6725 39.1973L27.1544 47.9503L24.7625 61.5612L23.585 68.3593Z" fill="#D1F94F"/>
<path d="M13.6623 63.2642L13.4401 62.4126C12.4528 58.157 11.495 53.8965 10.5669 49.631C10.1004 47.4983 9.63384 45.373 9.19692 43.2255C8.76001 41.0779 8.34532 38.9452 7.93803 36.8125L7.63441 35.2278L7.59738 35.0278V34.9315V34.8501L7.53074 34.5391C7.53074 34.4354 7.4789 34.3317 7.44928 34.2354C7.41966 34.1392 7.39744 34.0281 7.36782 33.9318C7.24743 33.5513 7.09379 33.1821 6.90868 32.8284C6.73695 32.4974 6.52827 32.1869 6.28664 31.9028C5.8013 31.3304 5.18714 30.8812 4.49457 30.5921C4.12528 30.436 3.74054 30.3193 3.34674 30.244C3.15421 30.2045 2.95427 30.1749 2.74692 30.1552H2.45811H2.05823H0.384631C-0.537725 36.3556 0.205873 42.6898 2.53915 48.508C4.87243 54.3262 8.71141 59.4191 13.6623 63.2642Z" fill="#D1F94F"/>
<path d="M1.96237 25.8379H2.99911C3.34716 25.8379 3.6878 25.8897 4.02844 25.9342C4.71731 26.0234 5.39492 26.1847 6.05009 26.4155C6.72561 26.6478 7.37372 26.9532 7.98287 27.3263C8.59925 27.7076 9.1706 28.1572 9.68608 28.6667C10.1965 29.1764 10.6531 29.7372 11.0487 30.3403C11.4204 30.9296 11.7424 31.5489 12.0113 32.1916C12.078 32.3397 12.1372 32.5026 12.1965 32.6656C12.2557 32.8285 12.315 32.984 12.3594 33.1395L12.5149 33.6134L12.5519 33.7319V33.8356L12.6038 34.0355L13.0555 35.6351C13.6331 37.7604 14.1885 39.8783 14.7069 42.0036C15.2252 44.1289 15.7214 46.2616 16.1879 48.3944C16.8988 51.5293 17.59 54.6716 18.2614 57.8213L20.0387 46.7726L22.2603 33.1173L23.3784 26.3044L23.9412 22.8906L24.2227 21.1874L24.3634 20.3358V20.1284V20.0173C24.3847 19.8872 24.4144 19.7586 24.4522 19.6322C24.497 19.4548 24.5564 19.2814 24.6299 19.1139C24.7064 18.9313 24.7981 18.7554 24.9039 18.5881C25.1196 18.2368 25.3924 17.9239 25.7111 17.6624C26.0146 17.4051 26.357 17.1976 26.7256 17.0478C27.5942 16.6935 28.561 16.662 29.4508 16.959C29.8295 17.0836 30.1867 17.2659 30.5097 17.4995C30.677 17.6185 30.8331 17.7524 30.9763 17.8994C31.3958 18.3158 31.7149 18.8223 31.9093 19.3805C31.9595 19.5261 32.0015 19.6745 32.0352 19.8248L34.9973 33.3246L37.9224 46.8244C38.3519 48.8683 38.7889 50.9048 39.2258 52.9486L41.203 36.9902L41.5066 34.5539C41.5066 34.3762 41.5584 34.2207 41.5806 34.0725C41.6029 33.9244 41.6399 33.7763 41.6769 33.6356C41.7362 33.3468 41.8028 33.0728 41.8843 32.7988C42.041 32.2495 42.2314 31.7104 42.4545 31.1845C42.9136 30.0939 43.5136 29.0682 44.2391 28.1335C45.008 27.1496 45.9219 26.2881 46.9495 25.5787C47.9723 24.8799 49.0927 24.3359 50.2744 23.9643C51.3715 23.6205 52.5046 23.4043 53.6512 23.3201L54.4584 23.283H55.1027H56.2727L58.6202 23.2312L68.5285 23.0313C65.9109 16.0261 61.1441 10.0288 54.9106 5.89761C48.677 1.76646 41.2963 -0.286635 33.8248 0.032241C26.3534 0.351118 19.1745 3.02561 13.3156 7.67286C7.45666 12.3201 3.21823 18.7018 1.20703 25.9045C1.42178 25.9045 1.64395 25.9045 1.8587 25.9045L1.96237 25.8379Z" fill="#D1F94F"/>
<path d="M108.265 11.123L112.16 24.6969L120.032 11.5674H129.022L109.546 42.203L105.533 28.6662L96.6982 42.203L87.8711 11.5674H96.5797L99.6307 24.6969L108.265 11.123Z" fill="white"/>
<path d="M140.226 11.5674L134.924 41.5958H127.178L132.473 11.5674H140.226Z" fill="white"/>
<path d="M170.18 11.5684L168.95 18.433H159.575L155.48 41.5968H147.771L151.866 18.433H142.477L143.676 11.5684H170.18Z" fill="white"/>
<path d="M183.911 11.124C187.495 11.124 190.279 12.0077 192.264 13.7751C194.249 15.5425 195.038 17.8579 194.634 20.7213L186.725 21.0397C186.813 20.6315 186.813 20.2094 186.726 19.801C186.64 19.3926 186.467 19.0072 186.221 18.67C185.938 18.3715 185.591 18.1406 185.207 17.9945C184.822 17.8484 184.41 17.7907 184 17.8258C183.034 17.7797 182.078 18.0387 181.267 18.5663C180.926 18.8042 180.64 19.1111 180.425 19.467C180.211 19.823 180.074 20.22 180.023 20.6324C179.959 20.9551 179.989 21.2895 180.109 21.5955C180.23 21.9015 180.437 22.1662 180.704 22.3578C181.771 22.9802 182.943 23.4019 184.163 23.6019C187.48 24.4313 189.949 25.5693 191.568 27.0158C193.187 28.4623 193.817 30.4568 193.456 32.9992C193.313 34.3603 192.879 35.6747 192.182 36.8528C191.486 38.031 190.544 39.0454 189.42 39.8269C187.039 41.3986 184.221 42.1763 181.371 42.0485C177.49 42.0485 174.494 41.1648 172.381 39.3974C170.268 37.63 169.451 35.1616 169.93 31.9921L177.838 31.7181C177.739 32.1858 177.755 32.6706 177.884 33.1309C178.013 33.5913 178.251 34.0136 178.579 34.3618C178.953 34.7065 179.394 34.9706 179.874 35.1375C180.354 35.3044 180.864 35.3706 181.371 35.3319C183.963 35.3319 185.367 34.4605 185.584 32.7178C185.63 32.3644 185.575 32.0054 185.425 31.6819C185.276 31.3583 185.039 31.0835 184.74 30.8887C183.742 30.2264 182.622 29.7706 181.445 29.5484C178.988 29.0053 176.64 28.0541 174.499 26.7343C172.554 25.3224 171.791 23.1675 172.21 20.2696C172.528 17.7038 173.822 15.3593 175.824 13.7233C177.848 11.9904 180.544 11.124 183.911 11.124Z" fill="white"/>
<path d="M214.626 11.1236C219.415 11.1236 223.202 12.6047 225.986 15.5668C228.77 18.5289 229.908 22.3575 229.4 27.0524C229.093 31.2529 227.165 35.1696 224.024 37.9752C220.862 40.7375 216.772 42.2006 212.575 42.0703C207.732 42.0703 203.933 40.6115 201.178 37.6938C198.424 34.7761 197.286 30.9352 197.765 26.1712C198.072 21.9706 200 18.054 203.141 15.2484C206.311 12.4717 210.414 10.998 214.626 11.1236ZM214.508 17.9883C213.351 17.9425 212.197 18.1367 211.119 18.5585C210.041 18.9804 209.062 19.6208 208.243 20.4395C206.569 22.2292 205.612 24.5726 205.555 27.0228C205.392 29.5702 205.952 31.5647 207.236 33.0062C207.925 33.7429 208.768 34.3191 209.705 34.694C210.642 35.0689 211.649 35.2335 212.657 35.176C213.813 35.2218 214.967 35.0276 216.045 34.6058C217.124 34.184 218.103 33.5435 218.921 32.7248C220.596 30.9351 221.553 28.5917 221.61 26.1415C221.772 23.5941 221.212 21.5996 219.929 20.1581C219.239 19.4214 218.396 18.8452 217.46 18.4703C216.523 18.0954 215.515 17.9308 214.508 17.9883Z" fill="white"/>
<path d="M255.541 11.5684H263.294L260.236 29.0744C259.465 33.251 257.78 36.46 255.178 38.7013C252.576 40.9426 249.244 42.0608 245.181 42.0559C240.95 42.0559 237.793 40.8513 235.709 38.4421C233.626 36.0329 232.969 32.7549 233.74 28.6079L236.702 11.5757H244.485L241.389 28.8375C240.663 33.0634 242.11 35.1789 245.729 35.1838C249.56 35.1838 251.848 33.0017 252.593 28.6375L255.541 11.5684Z" fill="white"/>
<path d="M267.345 10.9608L281.8 26.0602L284.474 11.5681H292.219L286.925 42.2037L272.403 27.2228L269.752 41.5965H262.006L267.345 10.9608Z" fill="white"/>
<path d="M292.197 41.5958L297.499 11.5674H309.466C313.989 11.5674 317.536 12.9719 320.108 15.781C322.68 18.5901 323.536 22.3248 322.677 26.9852C321.848 31.6949 319.92 35.3087 316.894 37.8265C313.868 40.3443 310.133 41.6007 305.69 41.5958H292.197ZM309.104 18.2321H304.083L301.121 34.931H306.26C307.351 34.9729 308.44 34.7982 309.463 34.4168C310.486 34.0355 311.424 33.4552 312.221 32.7095C313.761 31.2284 314.749 29.0735 315.183 26.2446C315.939 20.898 313.912 18.2272 309.104 18.2321Z" fill="white"/>
<path d="M104.718 48.2979V49.3124H101.237V57.6729H100.082V49.3124H96.6016V48.2979H104.718Z" fill="white"/>
<path d="M122.897 48.2979V49.3124H118.246V52.3337H122.341V53.326H118.246V56.6584H122.897V57.6729H117.113V48.2979H122.897Z" fill="white"/>
<path d="M139.73 48.1944C140.766 48.1642 141.779 48.4968 142.596 49.1349C142.988 49.4408 143.315 49.8227 143.557 50.2579C143.799 50.693 143.95 51.1725 144.003 51.6675L142.81 51.7786C142.771 51.4139 142.659 51.0606 142.483 50.7391C142.306 50.4176 142.068 50.1341 141.781 49.9051C141.185 49.442 140.447 49.2011 139.693 49.2238C139.234 49.2071 138.778 49.2891 138.353 49.4641C137.929 49.6391 137.548 49.9031 137.234 50.2383C136.574 51.0051 136.237 51.9978 136.294 53.0079C136.229 54.0307 136.572 55.0375 137.249 55.8071C137.849 56.3774 138.627 56.7241 139.452 56.7888C140.277 56.8535 141.1 56.6324 141.781 56.1625C142.347 55.7247 142.721 55.0852 142.825 54.3779L144.018 54.4741C143.876 55.4432 143.364 56.3194 142.588 56.9179C141.67 57.5662 140.558 57.8815 139.436 57.8115C138.314 57.7414 137.25 57.2903 136.42 56.5328C135.592 55.546 135.139 54.2994 135.139 53.0116C135.139 51.7238 135.592 50.4771 136.42 49.4904C136.855 49.0614 137.373 48.7253 137.942 48.5025C138.511 48.2797 139.119 48.1749 139.73 48.1944Z" fill="white"/>
<path d="M163.893 48.2979V57.6729H162.752V53.326H157.843V57.6729H156.688V48.2979H157.843V52.2967H162.73V48.2979H163.893Z" fill="white"/>
<path d="M177.18 48.1943L183.059 54.9331V48.3276H184.2V57.8212L178.335 51.0898V57.6805H177.18V48.1943Z" fill="white"/>
<path d="M198.409 49.4907C199.077 48.8067 199.937 48.3413 200.875 48.156C201.812 47.9707 202.784 48.0742 203.662 48.4529C204.54 48.8316 205.282 49.4676 205.791 50.277C206.299 51.0863 206.55 52.0309 206.511 52.986C206.541 53.6318 206.437 54.2768 206.207 54.8808C205.976 55.4847 205.623 56.0346 205.171 56.4961C204.244 57.335 203.04 57.7995 201.79 57.7995C200.54 57.7995 199.336 57.335 198.409 56.4961C197.547 55.5332 197.07 54.2861 197.07 52.9935C197.07 51.7008 197.547 50.4537 198.409 49.4907ZM201.794 49.2019C201.321 49.1852 200.85 49.2667 200.41 49.4413C199.97 49.6159 199.571 49.8799 199.239 50.2165C198.593 50.9951 198.24 51.9747 198.24 52.986C198.24 53.9974 198.593 54.977 199.239 55.7556C199.572 56.0917 199.971 56.3558 200.41 56.5316C200.85 56.7074 201.321 56.7911 201.794 56.7775C202.266 56.7928 202.736 56.7098 203.175 56.5339C203.613 56.358 204.01 56.093 204.341 55.7556C204.987 54.977 205.34 53.9974 205.34 52.986C205.34 51.9747 204.987 50.9951 204.341 50.2165C204.009 49.8816 203.611 49.6186 203.173 49.4441C202.735 49.2695 202.265 49.1871 201.794 49.2019Z" fill="white"/>
<path d="M220.536 48.2979V56.6584H225.231V57.6729H219.381V48.2979H220.536Z" fill="white"/>
<path d="M238.079 49.4907C238.747 48.8067 239.607 48.3413 240.544 48.156C241.482 47.9707 242.454 48.0742 243.332 48.4529C244.21 48.8316 244.952 49.4676 245.46 50.277C245.969 51.0863 246.22 52.0309 246.181 52.986C246.211 53.6318 246.107 54.2768 245.876 54.8808C245.646 55.4847 245.293 56.0346 244.84 56.4961C243.914 57.335 242.709 57.7995 241.46 57.7995C240.21 57.7995 239.006 57.335 238.079 56.4961C237.217 55.5332 236.74 54.2861 236.74 52.9935C236.74 51.7008 237.217 50.4537 238.079 49.4907ZM241.464 49.2019C240.991 49.1852 240.52 49.2667 240.08 49.4413C239.64 49.6159 239.241 49.8799 238.909 50.2165C238.263 50.9951 237.91 51.9747 237.91 52.986C237.91 53.9974 238.263 54.977 238.909 55.7556C239.597 56.4099 240.51 56.7747 241.46 56.7747C242.41 56.7747 243.323 56.4099 244.011 55.7556C244.657 54.977 245.01 53.9974 245.01 52.986C245.01 51.9747 244.657 50.9951 244.011 50.2165C243.679 49.8816 243.281 49.6186 242.843 49.4441C242.405 49.2695 241.935 49.1871 241.464 49.2019Z" fill="white"/>
<path d="M263.227 52.9115H267.537V53.3039C267.568 53.9038 267.48 54.5038 267.278 55.0694C267.076 55.635 266.764 56.155 266.359 56.5993C265.946 57.006 265.453 57.3227 264.912 57.5292C264.37 57.7357 263.791 57.8275 263.212 57.7989C262.604 57.8213 261.998 57.7185 261.431 57.4969C260.864 57.2752 260.349 56.9395 259.917 56.5104C259.085 55.5256 258.629 54.2782 258.629 52.9892C258.629 51.7002 259.085 50.4528 259.917 49.468C260.733 48.7098 261.785 48.2561 262.897 48.1832C264.008 48.1104 265.111 48.4229 266.019 49.0681C266.414 49.3553 266.748 49.7178 267.002 50.1347C267.256 50.5515 267.425 51.0145 267.5 51.497L266.308 51.6822C266.222 50.9674 265.857 50.3154 265.293 49.8679C264.701 49.4161 263.972 49.1809 263.227 49.2014C262.768 49.1798 262.309 49.2572 261.882 49.4284C261.456 49.5996 261.071 49.8607 260.754 50.1937C260.097 50.9703 259.765 51.9704 259.828 52.9855C259.768 54.0025 260.099 55.004 260.754 55.7847C261.073 56.1147 261.458 56.3737 261.884 56.5447C262.311 56.7156 262.768 56.7948 263.227 56.777C264.016 56.8136 264.789 56.5488 265.389 56.0365C265.973 55.4827 266.316 54.7224 266.345 53.9186H263.264L263.227 52.9115Z" fill="white"/>
<path d="M281.511 48.2979V57.6729H280.355V48.2979H281.511Z" fill="white"/>
<path d="M300.603 48.2979V49.3124H295.952V52.3337H300.025V53.326H295.952V56.6584H300.603V57.6729H294.797V48.2979H300.603Z" fill="white"/>
<path d="M316.221 48.1941C317.044 48.1613 317.854 48.4094 318.517 48.8976C318.806 49.1233 319.041 49.4119 319.203 49.7416C319.364 50.0713 319.449 50.4335 319.45 50.8007L318.287 50.8822C318.283 50.6456 318.228 50.4126 318.126 50.1991C318.024 49.9857 317.877 49.7968 317.695 49.6455C317.258 49.3488 316.742 49.1901 316.214 49.1901C315.686 49.1901 315.17 49.3488 314.733 49.6455C314.559 49.788 314.421 49.968 314.327 50.172C314.233 50.3759 314.187 50.5985 314.192 50.8229C314.186 51.0035 314.218 51.1834 314.284 51.3515C314.35 51.5195 314.45 51.6723 314.577 51.8004C314.723 51.9234 314.888 52.021 315.066 52.0892C315.522 52.267 315.993 52.4057 316.473 52.5039C317.346 52.6618 318.182 52.9807 318.939 53.4444C319.194 53.6361 319.396 53.8897 319.526 54.1813C319.655 54.4729 319.708 54.7928 319.679 55.1106C319.7 55.4998 319.625 55.8882 319.461 56.2418C319.297 56.5954 319.049 56.9036 318.739 57.1396C318.033 57.618 317.191 57.8544 316.34 57.8135C315.447 57.8468 314.568 57.5867 313.837 57.073C313.515 56.846 313.251 56.5456 313.068 56.1966C312.886 55.8477 312.788 55.4601 312.785 55.0662L313.94 55.0069C313.955 55.2667 314.029 55.5195 314.157 55.7457C314.286 55.9719 314.465 56.1651 314.681 56.3102C315.17 56.6476 315.754 56.8189 316.347 56.799C316.909 56.8294 317.466 56.6817 317.939 56.3769C318.129 56.2371 318.282 56.0523 318.383 55.839C318.483 55.6257 318.529 55.3906 318.517 55.155C318.525 54.9693 318.492 54.7842 318.42 54.6127C318.348 54.4412 318.24 54.2875 318.102 54.1627C317.947 54.0281 317.765 53.9272 317.569 53.8665C317.074 53.6651 316.561 53.5137 316.036 53.4148L315.059 53.163C314.784 53.0799 314.517 52.9759 314.259 52.852C313.886 52.7019 313.566 52.4441 313.341 52.1115C313.127 51.7234 313.012 51.2883 313.007 50.8451C312.998 50.4901 313.066 50.1372 313.206 49.8111C313.347 49.485 313.557 49.1935 313.822 48.9568C314.49 48.3957 315.352 48.1216 316.221 48.1941Z" fill="white"/>
</svg>
