<svg width="325" height="418" fill="none" xmlns="http://www.w3.org/2000/svg"><path d="M252.603 95.367c-.47-2.014-1.006-4.027-1.475-6.04-1.006-4.095-2.279-8.189-3.486-12.35-5.363-16.376-8.447-36.377-18.837-50.135A66.04 66.04 0 0 0 201.89 5.429 65.955 65.955 0 0 0 167.872.465a65.06 65.06 0 0 0-40.221 20.134 80.548 80.548 0 0 0-15.418 25.505c-6.704 15.84-13.407 31.544-20.11 47.45h-1.811c-4.424 0-8.781.605-13.406.672H-43.22a124.882 124.882 0 0 0-25.005 1.477 91.002 91.002 0 0 0-17.36 4.228 53.65 53.65 0 0 0-17.992 14.8 53.73 53.73 0 0 0-10.03 21.04 50.932 50.932 0 0 0 11.33 45.505 61.194 61.194 0 0 0 21.182 14.63c15.686 6.712 31.305 13.827 46.924 20.74 20.714 8.993 41.293 18.456 62.074 27.248a13595.39 13595.39 0 0 0-46.186 108.393c-9.452 21.88-18.637 43.827-28.022 65.639 40.221-11.007 80.442-22.685 120.662-33.558a149.912 149.912 0 0 0 17.766-6.107 72.633 72.633 0 0 0 33.79-30.549 72.758 72.758 0 0 0 8.977-44.688c-.604-4.363-1.274-8.726-1.878-13.021a107.479 107.479 0 0 0 62.037 1.467 107.58 107.58 0 0 0 52.526-33.078 103.404 103.404 0 0 0 21.518-37.652c9.452-27.853 4.96-55.707-4.894-82.688 11.731-.469 22.122 1.343 33.518-2.885a41.486 41.486 0 0 0 14.894-9.544 41.545 41.545 0 0 0 9.572-14.886 72.943 72.943 0 0 0 2.817-14.7c-23.998-.872-48.198-.536-72.397-.67Zm-98.006-40.27a28.371 28.371 0 0 1 13.407-12.215 32.679 32.679 0 0 1 15.687.873 23.324 23.324 0 0 1 9.037 5.864 23.366 23.366 0 0 1 5.442 9.304c3.083 9.397 5.363 19.128 8.446 28.525l1.676 5.973c-23.462.604-46.924 0-70.453 0 5.832-12.953 10.859-25.974 16.758-38.592v.268ZM17.781 193.49a216.631 216.631 0 0 0-18.972-8.322c-3.62-1.745-7.239-3.423-10.925-4.967l-8.782-3.892c-12.737-5.235-25.138-11.276-37.941-16.377a45.894 45.894 0 0 1-12.47-7.114 10.136 10.136 0 0 1-.642-9.023 10.137 10.137 0 0 1 2.705-3.775 10.13 10.13 0 0 1 4.106-2.168c7.977-.806 16.154 0 24.131 0H73.822l-1.541 2.818c-9.184 21.678-17.967 43.626-27.955 64.969-8.916-4.564-17.63-8.658-26.545-12.417v.268Zm69.046 137.588a35.527 35.527 0 0 1-19.708 11.545c-13.407 3.355-26.279 7.718-39.619 10.805l20.11-48.122c5.967-13.424 11.263-26.847 17.497-40.27a72.396 72.396 0 0 0 1.542-3.289l1.475 2.014c6.703 10.605 14.078 20.135 20.78 30.941a31.436 31.436 0 0 1-2.078 36.108v.268Zm-1.408-107.386-1.407-3.019c1.81-4.363 3.82-8.726 5.562-13.424 9.52-22.416 19.373-44.699 28.423-67.116 34.679-.268 69.313-.268 103.903 0 1.944 6.175 3.554 12.484 5.565 18.659a122.044 122.044 0 0 1 5.43 31.275 67.838 67.838 0 0 1-17.229 40.942 67.012 67.012 0 0 1-40.824 21.544 78.804 78.804 0 0 1-27.148-2.149c-21.049-8.523-41.36-18.59-62.275-27.181v.469Z" fill="#000" fill-opacity=".02"/></svg>