<svg width="273" height="62" fill="none" xmlns="http://www.w3.org/2000/svg"><g clip-path="url(#a)" fill="#fff"><path d="m49.678 28.73-1.031-.023h-.782a5.18 5.18 0 0 0-1.073.14 3.109 3.109 0 0 0-.804.317 2.93 2.93 0 0 0-.637.532c-.22.251-.404.532-.548.832a4.73 4.73 0 0 0-.214.515c-.03.088-.056.177-.082.258l-.03.118-.022.084-.335 1.906-2.768 16.224-1.95 11.286c13.266-3.57 23.026-15.613 23.042-29.921 0-.676-.026-1.348-.069-2.014l-10.633-.212-2.064-.042ZM20.803 59.929l-.05.284A31.26 31.26 0 0 0 31.224 62h.25c-1.488-6.517-2.939-13.042-4.393-19.565l-1.77-8.053-1.339 7.665-2.108 11.922-1.06 5.956v.003Zm-8.745-4.465-.177-.75a689.757 689.757 0 0 1-2.534-11.195 447.4 447.4 0 0 1-1.209-5.61 411.65 411.65 0 0 1-1.106-5.615L6.763 30.9l-.033-.173-.016-.085-.013-.069-.06-.274c-.016-.095-.042-.18-.068-.267-.027-.088-.046-.18-.076-.268a6.386 6.386 0 0 0-.404-.966 4.726 4.726 0 0 0-.551-.812 4.132 4.132 0 0 0-1.58-1.146 5.136 5.136 0 0 0-1.536-.381c-.088-.007-.174-.014-.256-.017h-.183.01l-.181.01-1.474-.03c-1.668 11.075 2.813 22.18 11.716 29.041Z"/><path d="M1.744 22.681h.072l.135-.007h.709c.305.014.607.04.906.082a9.22 9.22 0 0 1 1.78.421 8.784 8.784 0 0 1 1.7.8 8.31 8.31 0 0 1 1.503 1.174c.45.447.85.937 1.195 1.465.328.516.614 1.054.85 1.619.063.133.109.277.161.414.053.137.108.277.148.414l.134.418.033.104.027.089.049.176.394 1.4A202.185 202.185 0 0 1 13 36.826c.46 1.867.89 3.733 1.317 5.596a626.742 626.742 0 0 1 1.825 8.262l1.566-9.681 1.95-11.96.988-5.97.496-2.986.25-1.491.124-.747.03-.186.016-.095v-.023c-.013.062.04-.228.072-.336.043-.157.096-.307.161-.454a3.407 3.407 0 0 1 .952-1.275c.27-.222.571-.402.896-.532a3.453 3.453 0 0 1 3.33.391c.147.108.285.225.416.353a3.418 3.418 0 0 1 .926 1.697l2.6 11.825 2.574 11.825c.38 1.788.764 3.573 1.149 5.36l1.743-13.981.269-2.131c.023-.157.046-.29.069-.42.023-.131.052-.259.079-.386a12.55 12.55 0 0 1 .686-2.144 11.81 11.81 0 0 1 1.572-2.675 11.01 11.01 0 0 1 2.39-2.239 11.33 11.33 0 0 1 2.928-1.413 13.22 13.22 0 0 1 2.978-.564l.712-.033h.571l1.031-.023 2.065-.042 8.732-.176C56.045 8.389 44.62 0 31.227 0 16.887 0 4.813 9.61 1.147 22.697c.19 0 .384 0 .574-.013l.023-.006v.003Zm107.938-10.468-8.246 15.851.883-15.851h-7.725L87.297 28.1l.312-15.887h-6.812l.052 22.612h8.378l6.717-13.982-.68 13.982h8.729l12.343-22.612h-6.654Zm8.76 0-5.87 22.612h7.551l5.869-22.612h-7.55Zm30.53 0h-21.339l-1.313 5.067 7.134.03-4.567 17.515s3.168-.032 3.648-.032l3.486.032 4.547-17.515h7.071l1.333-5.097Zm13.869 16.432c.082-.356.122-.721.118-1.087a4.08 4.08 0 0 0-.144-1.001 5.255 5.255 0 0 0-.46-1.093 8.261 8.261 0 0 0-.807-1.208 10.547 10.547 0 0 0-.929-1.044l-.985-.946a32.724 32.724 0 0 1-1.566-1.498 6.253 6.253 0 0 1-.768-.927 2.317 2.317 0 0 1-.328-.737 1.56 1.56 0 0 1 0-.653c.101-.476.476-.874 1.116-1.194.706-.333 1.48-.5 2.262-.48.719.014 1.431.092 2.133.242a7.071 7.071 0 0 1 2.013.558c.637-2.45 1.122-4.242 1.339-5.14a30.168 30.168 0 0 0-6.004-.652c-.949 0-1.898.075-2.833.222a10.27 10.27 0 0 0-2.715.839 8.405 8.405 0 0 0-2.216 1.458 8.046 8.046 0 0 0-1.464 1.811 6.715 6.715 0 0 0-.781 1.98 5.452 5.452 0 0 0-.118 1.6 4.31 4.31 0 0 0 .403 1.481 7.295 7.295 0 0 0 1.041 1.576c.233.274.65.721 1.251 1.341l2.564 2.718a3.3 3.3 0 0 1 .518.702c.099.18.164.378.191.58.019.18.009.363-.03.539a1.778 1.778 0 0 1-1.129 1.25 5.9 5.9 0 0 1-2.406.424 11.102 11.102 0 0 1-2.495-.326 10.662 10.662 0 0 1-2.659-.947c-.634 2.428-.798 3.061-1.402 5.384 2.275.486 4.592.767 6.92.839 1.142 0 2.285-.114 3.404-.35a10.627 10.627 0 0 0 3.155-1.216 8.29 8.29 0 0 0 2.511-2.22 7.234 7.234 0 0 0 1.3-2.825Zm29.769-10.271a7.628 7.628 0 0 0-2.006-3.603 8.873 8.873 0 0 0-3.831-2.284 16.985 16.985 0 0 0-4.987-.711c-2.688-.02-5.351.5-7.829 1.534a15.253 15.253 0 0 0-5.939 4.28 14.55 14.55 0 0 0-3.059 6.37 11.546 11.546 0 0 0-.158 4.49 7.124 7.124 0 0 0 1.924 3.67 8.916 8.916 0 0 0 3.985 2.399c1.704.502 3.473.75 5.253.737a21.698 21.698 0 0 0 5.646-.737 15.39 15.39 0 0 0 5.056-2.395 14.58 14.58 0 0 0 3.755-3.952 15.061 15.061 0 0 0 2.104-5.11c.375-1.536.404-3.138.086-4.688Zm-7.344 4.822a9.566 9.566 0 0 1-1.556 3.492 8.145 8.145 0 0 1-2.905 2.584 7.635 7.635 0 0 1-3.595.92 5.975 5.975 0 0 1-3.109-.819 3.914 3.914 0 0 1-1.825-2.284 6.277 6.277 0 0 1-.069-3.214 9.505 9.505 0 0 1 1.596-3.57 8.545 8.545 0 0 1 2.954-2.61 7.698 7.698 0 0 1 3.67-.927 5.555 5.555 0 0 1 3.093.83 3.984 3.984 0 0 1 1.703 2.326 6.654 6.654 0 0 1 .043 3.272Zm30.766 6.354c.657-1.231 1.313-3.655 1.641-5.039l3.221-12.298h-7.344s-3.263 12.654-3.526 13.59a8.64 8.64 0 0 1-.889 1.958 6.14 6.14 0 0 1-.985 1.116c-.246.258-.535.47-.854.63-.357.153-.725.28-1.103.381a5.395 5.395 0 0 1-1.546.22 4.89 4.89 0 0 1-1.73-.301 2.157 2.157 0 0 1-1.152-.884 1.943 1.943 0 0 1-.351-1.198c0-.561.279-1.53.459-2.369.096-.44.604-2.333.604-2.333l2.807-10.807h-7.222s-3.657 14.073-3.792 14.609c-.134.535-.305 1.128-.364 1.393a9.498 9.498 0 0 0-.233 2.418c.026.395.148.776.348 1.119.266.493.627.93 1.06 1.282a7.83 7.83 0 0 0 1.97 1.185c.873.362 1.786.623 2.721.773a22.93 22.93 0 0 0 3.549.264c1.405 0 2.81-.117 4.195-.349a14.685 14.685 0 0 0 3.894-1.184 10.188 10.188 0 0 0 2.839-1.88 9.474 9.474 0 0 0 1.783-2.297Zm32.539-17.337h-6.48L238.26 26.97l-4.924-14.758h-8.591l-5.87 22.612h6.362l3.749-14.435 5.101 14.435h8.614l5.87-22.612Zm24.399 6.567a8.044 8.044 0 0 0-.827-3.138 5.66 5.66 0 0 0-1.97-2.17 7.472 7.472 0 0 0-2.912-1.093 23.87 23.87 0 0 0-3.86-.268c-1.314 0-11.162.101-11.162.101l-5.909 22.613h9.829a39.679 39.679 0 0 0 4.13-.2 15.307 15.307 0 0 0 2.655-.479c.7-.212 1.379-.49 2.029-.829a13.246 13.246 0 0 0 2.561-1.716c.82-.708 1.556-1.51 2.189-2.392a17.074 17.074 0 0 0 1.786-3.122 17.99 17.99 0 0 0 1.172-3.59c.276-1.22.371-2.47.289-3.716Zm-7.544 3.916h-.006a12.212 12.212 0 0 1-1.156 3.143 7.893 7.893 0 0 1-2.032 2.509 6.245 6.245 0 0 1-2.626 1.276 8.267 8.267 0 0 1-2.331.297h-2.728l3.381-13.02s4.045-.235 5.965.594c.735.326 1.224.98 1.51 1.883.286.904.302 2.007.023 3.318ZM79.695 42.249h2.922l-2.052 7.802h2.157l2.026-7.802h2.813l.387-1.491H80.07l-.375 1.491Zm13.817 7.801h6.795l.361-1.397h-4.675l.657-2.545 4.117-.02.328-1.485-4.044.02.614-2.362h4.668l.387-1.492h-6.789l-2.42 9.28Zm20.299-9.137a6.384 6.384 0 0 0-2.003.98 6 6 0 0 0-1.51 1.63 6.27 6.27 0 0 0-.85 2.09 5.162 5.162 0 0 0-.075 1.918c.088.568.357 1.09.768 1.494.417.415.929.725 1.49.9a6.068 6.068 0 0 0 1.904.288c.328 0 .686-.02 1.129-.055.444-.036.933-.098 1.474-.19.191-.551.394-1.09.608-1.631-.834.245-1.694.382-2.564.408a3.176 3.176 0 0 1-1.779-.434 1.951 1.951 0 0 1-.857-1.136 3.238 3.238 0 0 1 0-1.589 4.39 4.39 0 0 1 .581-1.426 4.39 4.39 0 0 1 1.047-1.165 4.109 4.109 0 0 1 1.343-.704 4.88 4.88 0 0 1 1.454-.222c.322 0 .647.026.965.075.417.068.827.163 1.231.28l.105-.73c.023-.167.072-.454.145-.859a12.346 12.346 0 0 0-2.374-.251 7.847 7.847 0 0 0-2.232.333v-.004Zm18.996 3.619h-4.428l.985-3.778h-2.298l-2.41 9.293h2.285l1.051-4.05h4.428l-1.05 4.05h2.179l2.413-9.293h-2.15l-1.005 3.778Zm17.495 3.296-2.829-7.074h-2.545l-2.412 9.293h1.861s1.609-6.236 1.802-6.97c.204.526 2.876 6.97 2.876 6.97h2.501l2.456-9.293h-1.875l-1.835 7.074Zm21.62-4.59a3.147 3.147 0 0 0-.798-1.455 3.36 3.36 0 0 0-1.474-.91 6.148 6.148 0 0 0-1.9-.28 7.668 7.668 0 0 0-2.275.325 6.807 6.807 0 0 0-1.999.98 5.544 5.544 0 0 0-1.507 1.63 6.484 6.484 0 0 0-.837 2.07 5.073 5.073 0 0 0-.079 1.833c.088.562.341 1.084.725 1.501.417.45.949.78 1.537.96a6.56 6.56 0 0 0 2.042.306 8.048 8.048 0 0 0 2.298-.326 6.016 6.016 0 0 0 2.005-1.025 5.725 5.725 0 0 0 1.435-1.647 6.794 6.794 0 0 0 .778-2.004 4.477 4.477 0 0 0 .049-1.958Zm-2.17 2.05a5.016 5.016 0 0 1-.525 1.39c-.236.43-.545.815-.919 1.138a3.71 3.71 0 0 1-1.218.705 3.99 3.99 0 0 1-1.343.232 3.177 3.177 0 0 1-1.589-.392 1.843 1.843 0 0 1-.906-1.135 3.313 3.313 0 0 1-.023-1.632 4.952 4.952 0 0 1 .765-1.772 4.035 4.035 0 0 1 1.432-1.305 3.91 3.91 0 0 1 1.904-.473c.413-.003.827.069 1.214.212.351.13.657.356.883.653.227.316.365.685.397 1.073.046.438.023.878-.072 1.306Zm13.767-4.52h-2.153l-2.413 9.293h6.503l.381-1.397h-4.369l2.051-7.896Zm21.126 2.487a3.152 3.152 0 0 0-.801-1.471v.01a3.384 3.384 0 0 0-1.471-.908 6.355 6.355 0 0 0-1.901-.28 7.68 7.68 0 0 0-2.275.326 6.833 6.833 0 0 0-1.999.979 5.572 5.572 0 0 0-1.507 1.631 6.525 6.525 0 0 0-.837 2.072 5.05 5.05 0 0 0-.078 1.834c.088.562.341 1.084.725 1.501.417.45.945.78 1.533.96.66.208 1.353.313 2.045.306a8.043 8.043 0 0 0 2.298-.326 6.013 6.013 0 0 0 2.006-1.025 5.725 5.725 0 0 0 1.435-1.647 6.794 6.794 0 0 0 .778-2.004c.16-.643.177-1.308.049-1.958Zm-2.173 2.033a4.916 4.916 0 0 1-.522 1.39c-.237.43-.545.816-.92 1.139-.357.31-.771.551-1.217.705a4.03 4.03 0 0 1-1.346.231 3.178 3.178 0 0 1-1.589-.391 1.857 1.857 0 0 1-.903-1.136 3.313 3.313 0 0 1-.026-1.631 5.02 5.02 0 0 1 .768-1.772 4.023 4.023 0 0 1 1.431-1.305 3.914 3.914 0 0 1 1.904-.473c.414-.004.824.068 1.212.212.351.127.659.355.883.652.226.314.364.68.4 1.064.049.44.023.884-.075 1.315Zm15.05-4.528a6.287 6.287 0 0 0-1.773.62c-.574.301-1.1.683-1.559 1.136a6.68 6.68 0 0 0-1.143 1.495 6.187 6.187 0 0 0-.64 1.697 4.854 4.854 0 0 0-.042 1.957c.088.565.357 1.084.765 1.485a3.51 3.51 0 0 0 1.569.819 8.97 8.97 0 0 0 2.186.251c.427 0 .955-.032 1.582-.091a20.452 20.452 0 0 0 2.124-.326 253.605 253.605 0 0 1 1.313-5.065h-3.663s-.187.787-.358 1.394h1.71l-.623 2.388a7.455 7.455 0 0 1-1.074.222c-.289.04-.581.062-.873.065a3.42 3.42 0 0 1-1.681-.381 1.681 1.681 0 0 1-.863-1.07 3.411 3.411 0 0 1 0-1.57 4.954 4.954 0 0 1 .614-1.53 4.39 4.39 0 0 1 1.116-1.254 4.533 4.533 0 0 1 1.454-.74 5.826 5.826 0 0 1 1.641-.238c.907.062 1.803.228 2.669.49 0 0 .26-1.039.414-1.57a14.085 14.085 0 0 0-2.981-.356c-.633 0-1.264.059-1.884.173Zm11.818 9.29h2.183l2.413-9.292h-2.246l-2.35 9.293Zm11.035 0h6.858l.361-1.396h-4.668l.656-2.558 4.058-.02.387-1.484-4.061.02.614-2.363 4.672-.02.38-1.471h-6.831l-2.426 9.293Zm18.751-9.135c-.486.186-.919.49-1.264.878-.305.346-.519.76-.617 1.21a2.079 2.079 0 0 0-.046.653c.026.215.089.424.184.617.131.251.295.483.482.695.096.12.276.326.535.594.549.57.929.982 1.136 1.23.148.15.26.33.329.525a.906.906 0 0 1 0 .415 1.061 1.061 0 0 1-.299.541c-.184.18-.411.31-.657.375a2.75 2.75 0 0 1-.847.134 4.288 4.288 0 0 1-2.111-.509c-.052.225-.377 1.397-.42 1.59.608.14 1.097.237 1.474.287.335.045.67.071 1.008.075a6.54 6.54 0 0 0 1.287-.128c.42-.085.824-.238 1.195-.453.371-.206.692-.49.945-.832a2.8 2.8 0 0 0 .499-1.08 2.22 2.22 0 0 0 .049-.467c0-.147-.022-.29-.062-.43a2.038 2.038 0 0 0-.19-.444 3.614 3.614 0 0 0-.329-.483 6.204 6.204 0 0 0-.462-.516l-.67-.757a6.663 6.663 0 0 1-.42-.392 2.412 2.412 0 0 1-.355-.42 1.254 1.254 0 0 1-.151-.294.912.912 0 0 1-.02-.46c.086-.304.296-.561.578-.705.351-.206.755-.31 1.162-.3a3.807 3.807 0 0 1 1.678.326c.072-.277.256-.979.417-1.54a11.136 11.136 0 0 0-2.157-.238 5.032 5.032 0 0 0-1.875.3h-.006v.003Z"/></g><defs><clipPath id="a"><path fill="#fff" d="M0 0h273v62H0z"/></clipPath></defs></svg>