<svg width="323" height="71" fill="none" xmlns="http://www.w3.org/2000/svg"><path d="M56.346 32.747h-2.052c-.412.007-.821.06-1.222.156a3.7 3.7 0 0 0-.91.362 3.558 3.558 0 0 0-.741.608c-.244.29-.453.608-.622.948a5.81 5.81 0 0 0-.237.592c0 .096-.067.2-.096.289v.229l-.378 2.178-3.14 18.513-2.221 12.885a35.435 35.435 0 0 0 26.148-34.153c0-.74 0-1.54-.082-2.296l-12.063-.244-2.384-.067ZM23.585 68.36l-.052.325a35.455 35.455 0 0 0 11.849 2.044h.281c-1.688-7.442-3.332-14.892-4.984-22.342l-2.006-9.19-1.519 8.753-2.392 13.611-1.177 6.798Zm-9.923-5.096-.222-.851a954.596 954.596 0 0 1-2.873-12.782c-.467-2.133-.933-4.258-1.37-6.406-.437-2.147-.852-4.28-1.259-6.413l-.304-1.584-.037-.2v-.178l-.066-.31c0-.105-.052-.208-.082-.305-.03-.096-.052-.207-.081-.303a6.81 6.81 0 0 0-.46-1.104 4.94 4.94 0 0 0-.621-.925 4.747 4.747 0 0 0-1.792-1.31 5.695 5.695 0 0 0-1.148-.349 5.636 5.636 0 0 0-.6-.089H.385a35.338 35.338 0 0 0 13.277 33.11Z" fill="#D1F94F"/><path d="M1.962 25.838H3c.348 0 .689.052 1.03.096.688.09 1.366.25 2.021.482a9.805 9.805 0 0 1 1.933.91 9.677 9.677 0 0 1 1.703 1.34c.51.51.967 1.071 1.363 1.674.371.59.693 1.209.962 1.852.067.148.126.31.186.474.059.163.118.318.162.474l.156.473.037.119v.104l.052.2.452 1.6a251.792 251.792 0 0 1 3.132 12.758 743.72 743.72 0 0 1 2.073 9.427l1.778-11.048 2.221-13.656 1.118-6.813.563-3.413.282-1.704.14-.851v-.318c.022-.13.051-.26.09-.386.044-.177.103-.35.177-.518.076-.183.168-.359.274-.526a3.72 3.72 0 0 1 .807-.926 3.755 3.755 0 0 1 1.015-.614 3.925 3.925 0 0 1 2.725-.089 3.872 3.872 0 0 1 1.525.94 3.89 3.89 0 0 1 1.06 1.926l2.961 13.5 2.925 13.5c.43 2.043.867 4.08 1.304 6.124l1.977-15.959.304-2.436c0-.178.051-.333.074-.482.022-.148.059-.296.096-.436.06-.29.126-.563.207-.837a13.891 13.891 0 0 1 2.355-4.665 12.33 12.33 0 0 1 2.71-2.555 12.587 12.587 0 0 1 3.325-1.615c1.097-.343 2.23-.56 3.377-.644l.807-.037h1.815l2.347-.052 9.908-.2a35.435 35.435 0 0 0-67.321 2.873h.652l.103-.066Z" fill="#D1F94F"/><path d="m108.265 11.123 3.895 13.574 7.872-13.13h8.99l-19.476 30.636-4.013-13.537-8.835 13.537-8.827-30.636h8.709l3.05 13.13 8.635-13.574Zm31.961.444-5.302 30.029h-7.746l5.295-30.029h7.753Zm29.954.001-1.23 6.865h-9.375l-4.095 23.164h-7.709l4.095-23.164h-9.389l1.199-6.865h26.504Zm13.731-.444c3.584 0 6.368.884 8.353 2.651 1.985 1.768 2.774 4.083 2.37 6.946l-7.909.319a2.955 2.955 0 0 0-.504-2.37 2.74 2.74 0 0 0-2.221-.844 4.609 4.609 0 0 0-2.733.74 2.968 2.968 0 0 0-1.244 2.066 1.715 1.715 0 0 0 .681 1.725 10.11 10.11 0 0 0 3.459 1.245c3.317.83 5.786 1.967 7.405 3.414 1.619 1.446 2.249 3.44 1.888 5.983a9.521 9.521 0 0 1-4.036 6.828 13.513 13.513 0 0 1-8.049 2.221c-3.881 0-6.877-.883-8.99-2.65-2.113-1.768-2.93-4.236-2.451-7.406l7.908-.274a2.962 2.962 0 0 0 .741 2.644 3.708 3.708 0 0 0 2.792.97c2.592 0 3.996-.871 4.213-2.614a1.889 1.889 0 0 0-.844-1.83 8.967 8.967 0 0 0-3.295-1.34 22.485 22.485 0 0 1-6.946-2.814c-1.945-1.412-2.708-3.567-2.289-6.464a10.05 10.05 0 0 1 3.614-6.547c2.024-1.733 4.72-2.599 8.087-2.599Zm30.715 0c4.789 0 8.576 1.48 11.36 4.443 2.784 2.962 3.922 6.79 3.414 11.485a16.233 16.233 0 0 1-5.376 10.923 16.618 16.618 0 0 1-11.449 4.095c-4.843 0-8.642-1.459-11.397-4.376-2.754-2.918-3.892-6.759-3.413-11.523a16.232 16.232 0 0 1 5.376-10.923 16.676 16.676 0 0 1 11.485-4.124Zm-.118 6.864a8.39 8.39 0 0 0-6.265 2.451 9.977 9.977 0 0 0-2.688 6.584c-.163 2.547.397 4.542 1.681 5.983a6.88 6.88 0 0 0 5.421 2.17 8.389 8.389 0 0 0 6.264-2.451 9.973 9.973 0 0 0 2.689-6.584c.162-2.547-.398-4.541-1.681-5.983a6.897 6.897 0 0 0-5.421-2.17Zm41.033-6.42h7.753l-3.058 17.506c-.771 4.177-2.456 7.386-5.058 9.627-2.602 2.242-5.934 3.36-9.997 3.355-4.231 0-7.388-1.205-9.472-3.614-2.083-2.41-2.74-5.687-1.969-9.834l2.962-17.032h7.783l-3.096 17.261c-.726 4.226.721 6.342 4.34 6.347 3.831 0 6.119-2.182 6.864-6.546l2.948-17.07Zm11.804-.608 14.455 15.1 2.674-14.492h7.745l-5.294 30.636-14.522-14.981-2.651 14.373h-7.746l5.339-30.635Zm24.852 30.636 5.302-30.029h11.967c4.523 0 8.07 1.405 10.642 4.214 2.572 2.81 3.428 6.544 2.569 11.204-.829 4.71-2.757 8.324-5.783 10.842-3.026 2.517-6.761 3.774-11.204 3.769h-13.493Zm16.907-23.364h-5.021l-2.962 16.699h5.139a8.262 8.262 0 0 0 5.961-2.221c1.54-1.482 2.528-3.637 2.962-6.465.756-5.347-1.271-8.018-6.079-8.013ZM104.718 48.298v1.014h-3.481v8.36h-1.155v-8.36h-3.48v-1.014h8.116Zm18.179 0v1.014h-4.651v3.022h4.095v.992h-4.095v3.332h4.651v1.015h-5.784v-9.375h5.784Zm16.833-.104a4.444 4.444 0 0 1 2.866.94 3.714 3.714 0 0 1 1.407 2.533l-1.193.112a2.782 2.782 0 0 0-1.029-1.874 3.243 3.243 0 0 0-2.088-.681 3.21 3.21 0 0 0-2.459 1.014 3.908 3.908 0 0 0-.94 2.77 3.866 3.866 0 0 0 .955 2.8 3.607 3.607 0 0 0 4.532.355 2.764 2.764 0 0 0 1.044-1.785l1.193.096a3.777 3.777 0 0 1-1.43 2.444 4.932 4.932 0 0 1-6.168-.385 5.477 5.477 0 0 1 0-7.043 4.509 4.509 0 0 1 3.31-1.296Zm24.163.104v9.375h-1.141v-4.347h-4.909v4.347h-1.155v-9.375h1.155v3.999h4.887v-4h1.163Zm13.287-.104 5.879 6.74v-6.606h1.141v9.493l-5.865-6.731v6.59h-1.155v-9.486Zm21.229 1.296a4.728 4.728 0 0 1 7.382.787c.508.81.759 1.754.72 2.709a4.71 4.71 0 0 1-1.34 3.51 5.037 5.037 0 0 1-6.762 0 5.252 5.252 0 0 1 0-7.005Zm3.385-.288a3.424 3.424 0 0 0-2.555 1.015 4.337 4.337 0 0 0 0 5.539 3.459 3.459 0 0 0 2.555 1.022 3.415 3.415 0 0 0 2.547-1.022 4.337 4.337 0 0 0 0-5.54 3.436 3.436 0 0 0-2.547-1.014Zm18.742-.904v8.36h4.695v1.015h-5.85v-9.375h1.155Zm17.543 1.192a4.729 4.729 0 0 1 5.253-1.037 4.726 4.726 0 0 1 2.849 4.533 4.694 4.694 0 0 1-1.341 3.51 5.035 5.035 0 0 1-6.761 0 5.252 5.252 0 0 1 0-7.005Zm3.385-.288a3.424 3.424 0 0 0-2.555 1.015 4.337 4.337 0 0 0 0 5.539 3.701 3.701 0 0 0 5.102 0 4.337 4.337 0 0 0 0-5.54 3.436 3.436 0 0 0-2.547-1.014Zm21.763 3.709h4.31v.393a4.55 4.55 0 0 1-1.178 3.295 4.195 4.195 0 0 1-3.147 1.2 4.443 4.443 0 0 1-3.295-1.289 5.456 5.456 0 0 1 0-7.042 4.842 4.842 0 0 1 6.102-.4 3.697 3.697 0 0 1 1.481 2.429l-1.192.185a2.733 2.733 0 0 0-1.015-1.814 3.257 3.257 0 0 0-2.066-.667 3.21 3.21 0 0 0-2.473.993 3.944 3.944 0 0 0-.926 2.791 3.99 3.99 0 0 0 .926 2.8 3.261 3.261 0 0 0 2.473.992 3.108 3.108 0 0 0 2.162-.74 3.07 3.07 0 0 0 .956-2.118h-3.081l-.037-1.008Zm18.284-4.613v9.375h-1.156v-9.375h1.156Zm19.092 0v1.014h-4.651v3.022h4.073v.992h-4.073v3.332h4.651v1.015h-5.806v-9.375h5.806Zm15.618-.104a3.629 3.629 0 0 1 2.296.704 2.43 2.43 0 0 1 .933 1.903l-1.163.081a1.65 1.65 0 0 0-.592-1.236 2.637 2.637 0 0 0-2.962 0 1.48 1.48 0 0 0-.541 1.177 1.327 1.327 0 0 0 .385.977c.146.123.311.221.489.29a8.7 8.7 0 0 0 1.407.414 7.16 7.16 0 0 1 2.466.94 1.876 1.876 0 0 1 .74 1.666 2.383 2.383 0 0 1-.94 2.03 3.94 3.94 0 0 1-2.399.673 4.088 4.088 0 0 1-2.503-.74 2.485 2.485 0 0 1-1.052-2.007l1.155-.06a1.685 1.685 0 0 0 .741 1.303 2.77 2.77 0 0 0 1.666.49 2.672 2.672 0 0 0 1.592-.422 1.426 1.426 0 0 0 .578-1.222 1.26 1.26 0 0 0-.415-.992 1.482 1.482 0 0 0-.533-.296 7.992 7.992 0 0 0-1.533-.452l-.977-.252a5.566 5.566 0 0 1-.8-.311 2.017 2.017 0 0 1-.918-.74 2.686 2.686 0 0 1-.334-1.267 2.448 2.448 0 0 1 .815-1.888 3.302 3.302 0 0 1 2.399-.763Z" fill="#fff"/></svg>